<?xml version="1.0" encoding="utf-8"?>
<!-- Generator: Adobe Illustrator 25.2.0, SVG Export Plug-In . SVG Version: 6.00 Build 0)  -->
<svg version="1.1" id="Layer_1" xmlns="http://www.w3.org/2000/svg" xmlns:xlink="http://www.w3.org/1999/xlink" x="0px" y="0px"
	 viewBox="0 0 1200 320" style="enable-background:new 0 0 1200 320;" xml:space="preserve">
<style type="text/css">
	.st0{fill:url(#SVGID_1_);}
</style>
<linearGradient id="SVGID_1_" gradientUnits="userSpaceOnUse" x1="600" y1="229.5598" x2="600" y2="87.9592" gradientTransform="matrix(1 0 0 -1 0 322)">
	<stop  offset="0" style="stop-color:#4D6EDC"/>
	<stop  offset="1" style="stop-color:#6633CC"/>
</linearGradient>
<path class="st0" d="M126,76.6c-3.4,24.9-22.7,65.3-37.8,80.5V76.6H126z M139.6,76.6c-3.5,19.7-10.1,38.5-19.9,55.9
	c-4.7,8.5-10.2,16.8-16.4,24.7h86.8c15.4-14.6,27-31,34.7-49c4.2-9.9,7.5-20.5,9.8-31.5L139.6,76.6L139.6,76.6z M126,251.5
	c-3.4-24.9-22.7-65.3-37.8-80.5v80.5H126z M234.7,251.5c-2.3-11-5.6-21.6-9.8-31.5c-7.7-18-19.3-34.4-34.7-49h-86.8
	c6.1,7.8,11.6,16.1,16.4,24.7c9.7,17.4,16.4,36.2,19.9,55.9h95V251.5z M408.4,219.1v32.5H272.8v-175h132.3v32.5h-92v38h81.3v31.5
	h-81.3v40.5H408.4z M576.1,219.1v32.5H440.6v-175h132.3v32.5h-92v38h81.3v31.5h-81.3v40.5H576.1z M760.2,140.1
	c0,39-29.3,63.3-76,63.3h-35.3v48.3h-40.5V76.6h75.8C730.9,76.6,760.2,100.8,760.2,140.1z M719.2,140.1c0-19.3-12.5-30.5-37.3-30.5
	h-33v60.8h33C706.7,170.3,719.2,159.1,719.2,140.1z M924.5,219.1v32.5H789v-175h132.3v32.5h-92v38h81.3v31.5h-81.3v40.5H924.5z
	 M1068.3,251.6l-33.8-48.8h-2h-35.3v48.8h-40.5v-175h75.8c46.8,0,76,24.3,76,63.5c0,26.3-13.3,45.5-36,55.3l39.3,56.3h-43.5V251.6z
	 M1030.3,109.6h-33v61h33c24.8,0,37.3-11.5,37.3-30.5C1067.5,120.8,1055,109.6,1030.3,109.6z"/>
</svg>
